<svg width="180" height="181" viewBox="0 0 180 181" fill="none" xmlns="http://www.w3.org/2000/svg">
<style>
#facebook, #google, #instagram, #facebook_video{
    animation: adAnim 4000ms ease-in-out infinite both;
    transform-box: fill-box;
    transform-origin: center;
}
#instagram{
    animation-delay: 1000ms;
}
#google{
    animation-delay: 2000ms;
}
#facebook_video{
    animation-delay: 3000ms;
}
@keyframes adAnim{
    0%{transform: translateX(-200%) scale(0.6); opacity: 0;}
    15%{transform: translateX(0) scale(0.9); opacity: 1;}
    35%{transform: translateX(0) scale(0.9); opacity: 1;}
    50%{transform: translateX(200%) scale(0.6); opacity: 0;}
    100%{transform: translateX(200%) scale(0.6); opacity: 0;}
}
</style>
<rect width="180" height="181" fill="#2671FF"/>
<g id="ads" clip-path="url(#clip0_4501_40836)">

<g id="facebook" clip-path="url(#clip1_4501_40836)">
<rect width="115.498" height="179.573" transform="translate(32 1)" fill="white"/>
<g id="Group 2019">
<g id="Group 2012">
<rect id="Rectangle 2185" x="37" y="77" width="60" height="60" fill="#2671FF"/>
<circle id="Ellipse 1710" cx="83.0332" cy="94" r="6" fill="#FF8F24"/>
</g>
<path id="Vector 276" opacity="0.9" d="M57.5992 109.225L39.0332 137H95.0332L78.5935 116.505C78.1897 116.001 77.4218 116.007 77.0249 116.516L71.1022 124.11C70.6868 124.643 69.8737 124.619 69.4903 124.063L59.2539 109.213C58.853 108.631 57.9917 108.637 57.5992 109.225Z" fill="#0A2144"/>
</g>
<g id="Group 2020">
<g id="Group 2012_2">
<rect id="Rectangle 2185_2" x="102" y="77" width="60" height="60" fill="#2671FF"/>
<circle id="Ellipse 1710_2" cx="148.348" cy="94.1162" r="6.04105" fill="#FF8F24"/>
</g>
<path id="Vector 276_2" opacity="0.9" d="M122.745 109.225L104.047 137.198H160.43L143.872 116.556C143.469 116.053 142.701 116.058 142.304 116.567L136.33 124.228C135.914 124.761 135.101 124.737 134.718 124.18L124.4 109.213C123.999 108.631 123.138 108.637 122.745 109.225Z" fill="#0A2144"/>
</g>
<line id="Line 256" x1="103.033" y1="149" x2="154.033" y2="149" stroke="#2671FF" stroke-width="4"/>
<line id="Line 257" x1="103.033" y1="158" x2="141.033" y2="158" stroke="#2671FF" stroke-width="4"/>
<line id="Line 240" x1="38" y1="33.0913" x2="104.717" y2="33.0913" stroke="#2671FF" stroke-width="10"/>
<line id="Line 254" x1="38" y1="149" x2="89" y2="149" stroke="#2671FF" stroke-width="4"/>
<line id="Line 255" x1="38.0332" y1="158" x2="76.0332" y2="158" stroke="#2671FF" stroke-width="4"/>
<line id="Line 241" x1="38" y1="49" x2="76.7474" y2="49" stroke="#2671FF" stroke-width="10"/>
<path id="Vector" d="M136.41 20.1244L136.877 16.867H133.959V14.7531C133.959 13.8621 134.366 12.9931 135.673 12.9931H137V10.2199C137 10.2199 135.796 10 134.645 10C132.242 10 130.671 11.5604 130.671 14.3847V16.8676H128V20.125H130.671V28H133.959V20.125L136.41 20.1244Z" fill="#0A2144"/>
</g>

<g id="instagram" clip-path="url(#clip2_4501_40836)">
<rect width="115.498" height="209.5" transform="translate(32 -14)" fill="white" stroke="white" stroke-width="2"/>
<g id="Group 2015" style="transform: scale(0.9);transform-box: fill-box;transform-origin: bottom center;">
<g id="Group 2014">
<rect id="Rectangle 2185_3" x="32" y="33.0012" width="115.498" height="115.498" fill="#2671FF"/>
</g>
<rect id="Rectangle 2215" x="32" y="131.963" width="115.498" height="16.5354" fill="#0A2144"/>
<rect id="Rectangle 2216" x="45" y="139.938" width="39.6895" height="2.5874" fill="white"/>
<path id="Vector_2" fill-rule="evenodd" clip-rule="evenodd" d="M135.056 138.129L138.254 141.129L135.056 144.129L134.254 143.379L136.655 141.129L134.254 138.879L135.056 138.129Z" fill="white" stroke="white"/>
</g>
<circle id="Ellipse 1710_3" cx="116.5" cy="63.5" r="8.5" fill="#FF8F24"/>
<circle id="Ellipse 1711" cx="50" cy="14" r="13" fill="#E9F0FF"/>
<circle id="Ellipse 1712" cx="81" cy="14" r="13" fill="#E9F0FF"/>
<circle id="Ellipse 1713" cx="112" cy="14" r="13" fill="#E9F0FF"/>
<circle id="Ellipse 1714" cx="143" cy="14" r="13" fill="#E9F0FF"/>
<path id="Vector 276_3" opacity="0.8" d="M73.5293 81.2137L39.0489 132.442C38.6018 133.106 39.0778 134 39.8785 134H140.907C141.748 134 142.213 133.026 141.685 132.372L111.481 94.9768C111.077 94.4769 110.314 94.4821 109.917 94.9875L97.3938 110.935C96.9783 111.464 96.1694 111.441 95.7858 110.888L75.1804 81.2018C74.7791 80.6238 73.9222 80.6299 73.5293 81.2137Z" fill="#0A2144"/>
<path id="Vector_3" d="M127.249 -5C124.354 -5 122 -2.64354 122 0.251465V7.75146C122 10.6457 124.356 13 127.251 13H134.751C137.646 13 140 10.6435 140 7.74854V0.248535C140 -2.64571 137.644 -5 134.749 -5H127.249ZM136.25 -2C136.664 -2 137 -1.664 137 -1.25C137 -0.836 136.664 -0.5 136.25 -0.5C135.836 -0.5 135.5 -0.836 135.5 -1.25C135.5 -1.664 135.836 -2 136.25 -2ZM131 -0.5C133.482 -0.5 135.5 1.51825 135.5 4C135.5 6.48175 133.482 8.5 131 8.5C128.518 8.5 126.5 6.48175 126.5 4C126.5 1.51825 128.518 -0.5 131 -0.5ZM131 1C130.204 1 129.441 1.31607 128.879 1.87868C128.316 2.44129 128 3.20435 128 4C128 4.79565 128.316 5.55871 128.879 6.12132C129.441 6.68393 130.204 7 131 7C131.796 7 132.559 6.68393 133.121 6.12132C133.684 5.55871 134 4.79565 134 4C134 3.20435 133.684 2.44129 133.121 1.87868C132.559 1.31607 131.796 1 131 1V1Z" fill="#0A2144"/>
<line id="Line 254_2" x1="45" y1="160" x2="123" y2="160" stroke="#2671FF" stroke-width="4"/>
<line id="Line 255_2" x1="45" y1="169" x2="103" y2="169" stroke="#2671FF" stroke-width="4"/>
</g>

<g id="facebook_video">
<g id="Group 2023">
<g id="Group 2017">
<rect id="Rectangle 2085" x="31" y="1" width="118" height="180" fill="white"/>
<line id="Line 254_3" x1="38" y1="147" x2="116" y2="147" stroke="#2671FF" stroke-width="4"/>
<line id="Line 255_3" x1="38" y1="156" x2="96" y2="156" stroke="#2671FF" stroke-width="4"/>
<line id="Line 240_2" x1="41" y1="35.0913" x2="107.717" y2="35.0913" stroke="#2671FF" stroke-width="10"/>
<line id="Line 241_2" x1="41" y1="51" x2="79.7474" y2="51" stroke="#2671FF" stroke-width="10"/>
<path id="Vector_4" d="M139.41 22.1244L139.877 18.867H136.959V16.7531C136.959 15.8621 137.366 14.9931 138.673 14.9931H140V12.2199C140 12.2199 138.796 12 137.645 12C135.242 12 133.671 13.5604 133.671 16.3847V18.8676H131V22.125H133.671V30H136.959V22.125L139.41 22.1244Z" fill="#0A2144"/>
</g>
<g id="Group 2022">
<g id="Group 2012_3">
<rect id="Rectangle 2185_4" x="37" y="76" width="105" height="60" fill="#2671FF"/>
<circle id="Ellipse 1710_4" cx="118" cy="94" r="7" fill="#FF8F24"/>
</g>
<path id="Vector 276_4" opacity="0.8" d="M75.948 92.2414L47 136H133L107.333 103.667C106.929 103.159 106.155 103.164 105.758 103.678L95.8031 116.576C95.3878 117.114 94.5684 117.09 94.1853 116.529L77.6081 92.2296C77.2077 91.6427 76.34 91.6488 75.948 92.2414Z" fill="#0A2144"/>
<path id="Polygon 3" d="M96.4265 105.126C97.1123 105.507 97.1123 106.493 96.4265 106.874L81.4856 115.175C80.8191 115.545 80 115.063 80 114.3L80 97.6995C80 96.937 80.8191 96.4551 81.4856 96.8254L96.4265 105.126Z" fill="white"/>
</g>
</g>
</g>

<g id="google">
<g id="Group 2018">
<rect id="Rectangle 2085_2" x="14" y="21" width="152" height="140.648" fill="white"/>
<g id="Group">
<path id="Vector_5" d="M145.938 39.302V42.753H150.73C150.284 44.946 148.417 46.206 145.938 46.206C144.55 46.1869 143.226 45.6223 142.252 44.6342C141.277 43.6462 140.731 42.3143 140.731 40.9265C140.731 39.5387 141.277 38.2068 142.252 37.2188C143.226 36.2307 144.55 35.6661 145.938 35.647C147.138 35.6456 148.302 36.0621 149.228 36.825L151.828 34.225C150.743 33.2708 149.443 32.594 148.039 32.2527C146.636 31.9114 145.17 31.9159 143.768 32.2657C142.366 32.6154 141.07 33.3001 139.991 34.2609C138.912 35.2217 138.083 36.4299 137.573 37.7819C137.064 39.1339 136.89 40.5893 137.067 42.0231C137.244 43.457 137.766 44.8266 138.589 46.0143C139.411 47.202 140.51 48.1724 141.79 48.8422C143.07 49.5121 144.493 49.8613 145.938 49.86C150.405 49.86 154.467 46.611 154.467 40.926C154.46 40.3786 154.393 39.8337 154.267 39.301L145.938 39.302V39.302Z" fill="#0A2144"/>
</g>
<g id="Group 2021">
<rect id="Rectangle 2086" x="27" y="87" width="126" height="64" fill="#2671FF"/>
<circle id="Ellipse 1710_5" cx="116.5" cy="104.5" r="8.5" fill="#FF8F24"/>
<path id="Vector 276_5" opacity="0.8" d="M76.3028 108.187L48.071 149.435C47.6168 150.099 48.092 151 48.8962 151H131.885C132.729 151 133.193 150.018 132.657 149.365L108.014 119.362C107.611 118.87 106.857 118.875 106.46 119.372L96.3499 132.034C95.9343 132.554 95.1356 132.531 94.7515 131.986L77.945 108.175C77.5431 107.606 76.6965 107.612 76.3028 108.187Z" fill="#0A2144"/>
</g>
<line id="Line 240_3" y1="-5" x2="102" y2="-5" transform="matrix(1 0 0 -1 27 62)" stroke="#2671FF" stroke-width="10"/>
<line id="Line 241_3" y1="-5" x2="59" y2="-5" transform="matrix(1 0 0 -1 27 46)" stroke="#2671FF" stroke-width="10"/>
</g>
</g>
</g>

<defs>
<clipPath id="clip0_4501_40836">
<rect width="180" height="180" fill="white" transform="translate(0 0.905029)"/>
</clipPath>
<clipPath id="clip1_4501_40836">
<rect width="115.498" height="179.573" fill="white" transform="translate(32 1)"/>
</clipPath>
<clipPath id="clip2_4501_40836">
<rect width="115.498" height="209.5" fill="white" transform="translate(32 -14)"/>
</clipPath>
</defs>
</svg>
