<svg width="100%" height="100%" viewBox="0 0 836 629" fill="none" xmlns="http://www.w3.org/2000/svg">
<style>
    #Layer_2{
        animation: layerAnim 1800ms linear infinite;
    }
    #CHARACTER_ON_SCOOTER{
        animation: entireAnim 300ms linear infinite;
    }
    #Entire{
        animation: entireAnim 300ms linear infinite;
    }
    #CHARACTER{
        animation: entireAnim 300ms linear infinite;
        animation-delay: -50ms;
    }
    #Wheel_01, #Wheel_02{
        transform-box: fill-box;
        transform-origin: center;
        animation: rotateMe 300ms linear infinite;
    }
    #HEAD{
        transform-box: fill-box;
        transform-origin: bottom left;
        animation: headAnim 300ms linear infinite;
        animation-delay: -150ms;
    }
    @media screen and (prefers-reduced-motion: no-preference) {
        @keyframes layerAnim{
            50%{transform: translateX(2%);}
            100%{transform: translateX(0);}
        }
        @keyframes entireAnim{
            50%{transform: translateY(1%);}
            100%{transform: translateY(0);}
        }
        @keyframes rotateMe{
            100%{transform: rotate(360deg);}
        }
        @keyframes headAnim{
            50%{transform: rotate(6deg);}
            100%{transform: rotate(0deg);}
        }
    }
</style>
<g id="Layer_2">
<g id="CHARACTER_ON_SCOOTER">
<g id="SCOOTER">
<g id="Wheel_01">
<path id="Vector" d="M720.535 608.39C752.903 608.39 779.142 582.151 779.142 549.784C779.142 517.416 752.903 491.177 720.535 491.177C688.168 491.177 661.928 517.416 661.928 549.784C661.928 582.151 688.168 608.39 720.535 608.39Z" fill="#572BB4"/>
<path id="Vector_2" d="M673.201 584.35C664.66 572.638 660.763 558.176 662.261 543.758C663.76 529.341 670.548 515.99 681.315 506.284C692.081 496.579 706.062 491.207 720.558 491.207C735.053 491.207 749.034 496.578 759.801 506.284L673.201 584.35Z" fill="#301270"/>
<path id="Vector_3" d="M720.536 566.589C729.806 566.589 737.322 559.073 737.322 549.803C737.322 540.532 729.806 533.016 720.536 533.016C711.265 533.016 703.75 540.532 703.75 549.803C703.75 559.073 711.265 566.589 720.536 566.589Z" stroke="white" stroke-width="5" stroke-miterlimit="10"/>
</g>
<g id="Wheel_02">
<path id="Vector_4" d="M185.442 608.39C217.81 608.39 244.049 582.151 244.049 549.784C244.049 517.416 217.81 491.177 185.442 491.177C153.074 491.177 126.835 517.416 126.835 549.784C126.835 582.151 153.074 608.39 185.442 608.39Z" fill="#572BB4"/>
<path id="Vector_5" d="M129.874 531.105C134.308 517.93 143.28 506.759 155.188 499.587C167.096 492.415 181.166 489.709 194.885 491.951C208.605 494.193 221.08 501.238 230.086 511.828C239.091 522.418 244.04 535.863 244.049 549.765L129.874 531.105Z" fill="#301270"/>
<path id="Vector_6" d="M185.469 566.589C194.739 566.589 202.255 559.073 202.255 549.803C202.255 540.532 194.739 533.016 185.469 533.016C176.198 533.016 168.682 540.532 168.682 549.803C168.682 559.073 176.198 566.589 185.469 566.589Z" stroke="white" stroke-width="5" stroke-miterlimit="10"/>
</g>
<g id="Entire">
<path id="Vector_7" d="M636.97 269.046C636.971 275.685 634.609 282.107 630.307 287.163C626.005 292.22 620.043 295.58 613.49 296.643C606.937 297.706 600.219 296.402 594.539 292.964C588.86 289.526 584.589 284.179 582.491 277.88L629.67 250.207C634.376 255.351 636.981 262.074 636.97 269.046V269.046Z" fill="#D051E4"/>
<path id="Vector_8" d="M629.67 250.207L582.491 277.88C580.466 271.801 580.59 265.211 582.843 259.212C585.096 253.214 589.342 248.171 594.869 244.929C600.396 241.687 606.869 240.442 613.204 241.403C619.54 242.364 625.353 245.472 629.67 250.207V250.207Z" fill="white" stroke="#301270" stroke-width="5" stroke-miterlimit="10" stroke-linecap="round"/>
<path id="Vector_9" d="M353.41 544.026V385.227H243.664C164.056 385.227 97.8135 446.428 91.5492 525.789H228.641C237.864 525.789 246.983 527.731 255.406 531.487C263.829 535.243 271.367 540.73 277.53 547.59L297.473 569.788C301.429 574.194 306.268 577.717 311.676 580.129C317.083 582.541 322.938 583.787 328.86 583.786H603.078C613.949 583.786 624.623 580.886 634 575.386L782.216 488.427C782.216 488.427 766.13 436.58 699.29 450.468L584.734 263.074C582.644 259.656 579.711 256.832 576.217 254.873C572.722 252.913 568.783 251.883 564.776 251.882H543.489V262.141H552.48C556.98 262.14 561.386 263.437 565.168 265.876C568.95 268.315 571.949 271.793 573.805 275.893L643.753 430.544C672.55 494.197 626.003 566.341 556.139 566.341H375.715C372.785 566.341 369.883 565.764 367.177 564.642C364.47 563.521 362.01 561.877 359.939 559.805C357.868 557.732 356.225 555.272 355.105 552.565C353.985 549.857 353.409 546.956 353.41 544.026V544.026Z" fill="white" stroke="#301270" stroke-width="5" stroke-miterlimit="10" stroke-linecap="round"/>
<path id="Vector_10" d="M105.152 525.415C111.462 486.573 145.175 456.896 185.811 456.896C230.945 456.896 267.533 493.484 267.533 538.618" stroke="#301270" stroke-width="5" stroke-miterlimit="10"/>
<path id="Vector_11" d="M700.002 450.099C683.677 454.813 670.227 465.468 662.652 479.303" stroke="#301270" stroke-width="5" stroke-miterlimit="10"/>
<path id="Vector_12" d="M544.578 264.438C551.024 264.438 556.25 259.212 556.25 252.766C556.25 246.32 551.024 241.094 544.578 241.094C538.132 241.094 532.906 246.32 532.906 252.766C532.906 259.212 538.132 264.438 544.578 264.438Z" fill="#301270"/>
<path id="Vector_13" d="M555.789 173.829C563.754 163.073 566.9 151.9 562.814 148.875C558.729 145.85 548.96 152.118 540.995 162.874C533.03 173.631 529.885 184.803 533.97 187.828C538.055 190.853 547.824 184.585 555.789 173.829Z" fill="#D051E4"/>
<path id="Vector_14" d="M552.905 171.371C561.124 160.272 564.369 148.742 560.151 145.619C555.934 142.497 545.853 148.963 537.633 160.063C529.414 171.162 526.17 182.692 530.387 185.815C534.604 188.937 544.686 182.471 552.905 171.371Z" stroke="#301270" stroke-width="5" stroke-miterlimit="10" stroke-linecap="round"/>
<path id="Vector_15" d="M577.381 255.58V210.682C577.38 204.564 575.113 198.663 571.018 194.117L545.69 166.021" stroke="#301270" stroke-width="5" stroke-miterlimit="10" stroke-linecap="round"/>
<path id="Vector_16" d="M353.414 385.227V411.241L233.386 385.608V385.581C236.783 385.348 240.21 385.232 243.668 385.235L353.414 385.227Z" fill="#301270"/>
<path id="Vector_17" d="M252.058 361.053H400.467V363.818C400.467 369.495 398.212 374.94 394.198 378.954C390.184 382.968 384.739 385.224 379.062 385.224H233.383V379.725C233.381 377.272 233.863 374.843 234.801 372.577C235.739 370.311 237.115 368.251 238.849 366.517C240.584 364.783 242.643 363.408 244.909 362.471C247.176 361.533 249.605 361.051 252.058 361.053Z" fill="#572BB4"/>
</g>
</g>
<g id="CHARACTER">
<g id="LEGS">
<g id="RIGHT">
<path id="Vector_18" d="M549.46 537.422C507.133 549.311 464.158 541.467 452.844 539.003C452.882 538.915 452.92 538.824 452.962 538.732L546.802 345.28V526.752C546.806 530.472 547.718 534.135 549.46 537.422V537.422Z" fill="#301270"/>
<path id="Vector_19" d="M566.779 562.864V566.334H469.863C455.773 566.334 446.378 551.836 452.056 539.003C463.385 541.467 506.344 549.311 548.672 537.422C550.228 540.357 552.406 542.916 555.054 544.921L559.555 548.348C561.799 550.045 563.618 552.239 564.872 554.758C566.125 557.277 566.778 560.051 566.779 562.864V562.864Z" fill="#572BB4" stroke="#301270" stroke-width="5" stroke-miterlimit="10"/>
</g>
<g id="LEFT">
<path id="Vector_20" d="M541.044 360.475L458.888 530.073C457.417 533.117 457.145 536.602 458.126 539.837C458.126 539.837 405.395 561.162 356.354 554.826C354.651 551.81 353.672 548.439 353.496 544.98C353.32 541.52 353.95 538.068 355.337 534.894L423.792 376.476C424.571 374.672 424.89 372.703 424.72 370.745C424.549 368.788 423.895 366.903 422.816 365.261C421.737 363.618 420.266 362.27 418.537 361.337C416.808 360.404 414.873 359.915 412.908 359.915H314.659C305.821 359.914 297.086 358.023 289.04 354.369C280.993 350.714 273.821 345.381 268.006 338.726L400.707 278.821H489.87C531.828 278.817 559.334 322.702 541.044 360.475Z" fill="white" stroke="#301270" stroke-width="5" stroke-miterlimit="10" stroke-linecap="round"/>
<path id="Vector_21" d="M433.952 302.515C475.91 302.515 503.416 346.404 485.126 384.161L402.969 553.759" stroke="#301270" stroke-width="5" stroke-miterlimit="10" stroke-linecap="round" stroke-dasharray="20 20"/>
<path id="Vector_22" d="M473.697 566.334H376C371.992 566.348 368.054 565.286 364.596 563.26C361.138 561.233 358.288 558.315 356.343 554.81C405.384 561.136 458.115 539.822 458.115 539.822C458.807 542.127 460.106 544.204 461.877 545.835L466.652 550.252C468.874 552.3 470.648 554.787 471.86 557.555C473.073 560.323 473.698 563.312 473.697 566.334Z" fill="white" stroke="#301270" stroke-width="5" stroke-miterlimit="10"/>
</g>
</g>
<g id="HEAD">
<g id="HEAD_2">
<path id="Vector_23" d="M424.143 104.569L412.49 121.1C405.352 116.196 396.892 113.577 388.232 113.591H370.22C369.25 113.591 368.281 113.606 367.314 113.636L392.733 90.4983L424.143 104.569Z" fill="white" stroke="#301270" stroke-width="5" stroke-miterlimit="10" stroke-linecap="round"/>
<path id="Vector_24" d="M433.191 74.8278L436.028 92.2652C436.14 93.2219 435.9 94.1867 435.352 94.9793C434.805 95.7719 433.988 96.3381 433.053 96.5722L432.814 96.6293C431.882 96.8567 431.042 97.3601 430.401 98.0736C429.761 98.7872 429.352 99.6775 429.226 100.628L428.465 106.424C428.305 107.621 427.679 108.706 426.722 109.442C425.765 110.178 424.556 110.506 423.358 110.354C416.819 109.482 405.197 106.348 401.979 95.0756C397.429 79.1348 414.378 74.8164 414.378 74.8164L433.191 74.8278Z" fill="white" stroke="#301270" stroke-width="5" stroke-miterlimit="10" stroke-linecap="round"/>
<path id="Vector_25" d="M418.621 80.8066C418.621 80.8066 422.319 78.6475 425.586 78.5903" stroke="#301270" stroke-width="5" stroke-miterlimit="10" stroke-linecap="round"/>
<path id="Vector_26" d="M423.583 88.2209C424.235 88.2209 424.763 87.2832 424.763 86.1264C424.763 84.9697 424.235 84.032 423.583 84.032C422.931 84.032 422.402 84.9697 422.402 86.1264C422.402 87.2832 422.931 88.2209 423.583 88.2209Z" fill="#301270"/>
<path id="Vector_27" d="M429.105 100.845C424.664 100.845 423.724 96.5265 423.724 96.5265" stroke="#301270" stroke-width="5" stroke-miterlimit="10" stroke-linecap="round"/>
</g>
<g id="HELMET">
<path id="Vector_28" d="M390.483 88.4913L389.961 87.3489C387.443 81.8662 387.205 75.6084 389.298 69.9499C391.39 64.2914 395.643 59.6948 401.123 57.1696L404.043 55.8215C406.646 54.6207 409.478 53.9993 412.344 54C415.211 54.0007 418.043 54.6237 420.644 55.8258C423.246 57.028 425.556 58.7806 427.415 60.9627C429.273 63.1448 430.636 65.7043 431.409 68.4644L433.191 74.824H418.834C416.984 74.824 415.209 75.559 413.901 76.8674C412.593 78.1757 411.858 79.9502 411.858 81.8005V84.1234C411.858 86.8978 410.755 89.5586 408.794 91.5204C406.832 93.4822 404.171 94.5843 401.397 94.5843H399.988C397.986 94.5847 396.027 94.0108 394.342 92.9308C392.657 91.8508 391.318 90.31 390.483 88.4913V88.4913Z" fill="#301270"/>
<path id="Vector_29" d="M418.964 113.678C418.86 113.678 418.757 113.671 418.655 113.659C416.324 113.37 411.157 111.949 406.557 108.457C400.974 104.215 398.225 98.419 398.602 91.7015C398.638 91.045 398.935 90.4301 399.425 89.9919C399.915 89.5538 400.559 89.3284 401.216 89.3652C401.872 89.4021 402.487 89.6982 402.925 90.1885C403.364 90.6788 403.589 91.323 403.552 91.9795C402.874 104.082 415.986 108.354 419.272 108.735C419.928 108.775 420.542 109.074 420.978 109.567C421.414 110.059 421.637 110.704 421.597 111.361C421.557 112.017 421.258 112.631 420.766 113.067C420.273 113.503 419.628 113.726 418.971 113.686L418.964 113.678Z" fill="#301270"/>
<path id="Vector_30" d="M401.206 91.7016C404.603 91.7016 407.356 88.9481 407.356 85.5515C407.356 82.1549 404.603 79.4014 401.206 79.4014C397.809 79.4014 395.056 82.1549 395.056 85.5515C395.056 88.9481 397.809 91.7016 401.206 91.7016Z" stroke="white" stroke-width="5" stroke-miterlimit="10"/>
</g>
<g id="HAIR">
<path id="Vector_31" d="M415.795 75.8598C412.832 76.4005 421.945 72.5581 428.362 69.1308C427.973 68.0683 427.774 66.9455 427.776 65.814C427.776 60.2351 432.486 55.7148 438.294 55.7148C444.101 55.7148 448.815 60.2351 448.815 65.814C448.815 71.3928 444.105 75.9093 438.294 75.9093L415.795 75.8598Z" fill="#D051E4"/>
<path id="Vector_32" d="M455.422 68.8072C457.466 68.8072 459.124 67.1499 459.124 65.1057C459.124 63.0614 457.466 61.4042 455.422 61.4042C453.378 61.4042 451.721 63.0614 451.721 65.1057C451.721 67.1499 453.378 68.8072 455.422 68.8072Z" fill="#D051E4"/>
</g>
</g>
<g id="HAND">
<path id="Vector_33" d="M503.923 280.531C503.923 280.531 408.145 333.315 356.667 298.699C356.667 298.699 307.572 332.032 268.01 338.723V246.132C268.01 226.646 276.719 197.582 286.289 171.531C292.661 154.198 304.199 139.239 319.345 128.673C334.491 118.107 352.514 112.444 370.981 112.448H389.009C400.391 112.448 411.307 116.97 419.356 125.018C427.405 133.067 431.926 143.983 431.926 155.366V204.57C431.926 206.073 432.258 207.557 432.897 208.916C433.537 210.276 434.468 211.478 435.626 212.436C436.783 213.394 438.138 214.085 439.593 214.459C441.048 214.833 442.568 214.882 444.044 214.601L501.299 203.71C496.603 208.279 493.127 224.681 493.127 242.351C493.119 263.192 497.955 280.531 503.923 280.531Z" fill="#D051E4"/>
<path id="Vector_34" d="M512.822 242.351C512.822 263.192 507.986 280.531 502.018 280.531C496.051 280.531 491.215 263.192 491.215 242.351C491.215 221.509 496.051 204.353 502.018 204.353C507.986 204.353 512.822 221.509 512.822 242.351Z" fill="white" stroke="#D051E4" stroke-width="5" stroke-miterlimit="10"/>
<path id="Vector_35" d="M568.241 222.118V259.461H562.96C561.184 259.461 559.481 258.755 558.226 257.5C556.97 256.244 556.265 254.541 556.265 252.766C556.265 249.671 555.036 246.702 552.848 244.513C550.66 242.323 547.692 241.092 544.597 241.09C541.502 241.093 538.534 242.324 536.346 244.513C534.157 246.703 532.927 249.671 532.925 252.766C532.926 256.412 532.208 260.023 530.814 263.392C529.419 266.761 527.373 269.822 524.795 272.401C522.217 274.979 519.155 277.024 515.786 278.419C512.417 279.814 508.806 280.532 505.16 280.531H503.945H503.66C497.826 279.986 493.142 262.876 493.142 242.362C493.142 232.967 494.128 224.323 495.75 217.663L510.031 211.021L518.009 207.312C522.116 205.403 526.732 204.88 531.162 205.823L560.008 211.954C562.336 212.452 564.423 213.732 565.921 215.581C567.419 217.431 568.238 219.738 568.241 222.118V222.118Z" fill="white" stroke="#301270" stroke-width="5" stroke-miterlimit="10" stroke-linecap="round"/>
<path id="Vector_36" d="M541.169 222.743L559.989 226.741C562.32 227.238 564.41 228.52 565.909 230.373C567.408 232.226 568.226 234.537 568.226 236.92V259.08" stroke="#301270" stroke-width="5" stroke-miterlimit="10" stroke-linecap="round"/>
<path id="Vector_37" d="M514.726 242.351C514.726 263.196 509.89 280.531 503.922 280.531H503.637C497.803 279.986 493.119 262.876 493.119 242.362C493.119 232.967 494.105 224.323 495.727 217.663L510.008 211.021C512.86 217.88 514.726 229.403 514.726 242.351Z" fill="#301270"/>
<path id="Vector_38" d="M362.95 303.353C344.838 291.548 327.504 272.195 332.641 213.775" stroke="white" stroke-width="5" stroke-miterlimit="10" stroke-linecap="round"/>
</g>
</g>
</g>
</g>
</svg>
